<svg xmlns="http://www.w3.org/2000/svg" width="256" height="256"><path fill-opacity=".016" d="M0 128.004v128.004l128.25-.254 128.25-.254.254-127.75L257.008 0H0v128.004m.485.496c0 70.4.119 99.053.265 63.672.146-35.38.146-92.98 0-128C.604 29.153.485 58.1.485 128.5" fill="#1976D2" fill-rule="evenodd"/><path fill-opacity=".326" d="M57.681 1.8C56.395 3.221 56 5.578 56 11.829V20l15.25.006c8.388.003 16.967.482 19.065 1.065 4.708 1.307 11.319 7.737 12.452 12.111.727 2.804.31 4.173-2.985 9.789-4.196 7.155-8.308 18.974-9.361 26.911-.37 2.794-.973 4.895-1.339 4.669-.766-.474.529 14.975 1.761 20.995.787 3.85.705 4.055-1.702 4.254-4.419.366-11.113 4.282-14.431 8.441-1.766 2.214-3.094 4.426-2.952 4.916.142.491-1.599-.055-3.869-1.213-7.538-3.846-17.293-2.809-24.366 2.59L39 117.987l-.035-40.744L38.93 36.5l-5.92 6.229C12.829 63.962 0 97.101 0 128c0 18.358 5.323 40.762 13.581 57.16 12.862 25.543 37.014 48.812 62.13 59.86 19.458 8.559 35.863 11.582 57.789 10.649 34.095-1.452 61.874-13.9 85.591-38.354 10.226-10.544 17.465-20.512 23.271-32.04 5.789-11.496 7.843-10.606-23.612-10.225-14.988.182-36.04.245-46.784.14l-19.535-.19-1.715-2.904c-1.542-2.609-1.716-6.838-1.716-41.596 0-34.758.174-38.987 1.716-41.596L152.431 86l19.535-.188c10.744-.103 32.012-.041 47.262.139 24.989.295 27.79.165 28.359-1.316.375-.979-1.397-5.788-4.382-11.889-24.786-50.667-78.757-79.382-133.83-71.204-5.71.847-12.96 2.326-16.11 3.285l-5.729 1.744-1.518-3.035L84.5.5 71.931.221C60.742-.026 59.177.147 57.681 1.8M72.75 71.662c.688.278 1.813.278 2.5 0 .688-.277.125-.504-1.25-.504s-1.937.227-1.25.504m7 0c.688.278 1.813.278 2.5 0 .688-.277.125-.504-1.25-.504s-1.937.227-1.25.504M63.437 77.25L60.5 80.5l3.25-2.937c1.787-1.615 3.25-3.078 3.25-3.25 0-.773-.825-.092-3.563 2.937m-4.483 5.836c-.614 1.147-.928 2.274-.697 2.504.23.23.932-.708 1.559-2.086 1.378-3.024.707-3.35-.862-.418m-2.875 9.497c.048 1.165.285 1.402.604.605.289-.722.253-1.585-.079-1.917-.332-.332-.568.258-.525 1.312m0 10c.048 1.165.285 1.402.604.605.289-.722.253-1.585-.079-1.917-.332-.332-.568.258-.525 1.312m102.628 2.433c-8.171 6.427-3.99 20.984 6.028 20.984 2.607 0 4.307-.842 6.865-3.4 2.902-2.902 3.4-4.088 3.4-8.1s-.498-5.198-3.4-8.1c-4.038-4.038-8.861-4.556-12.893-1.384m24.573 1.234c-.531.688-4.895 10.649-9.699 22.138-7.953 19.018-8.593 21.028-7.158 22.464 1.384 1.384 1.751 1.397 2.999.112 2.271-2.339 18.851-42.809 18.216-44.464-.699-1.823-3.04-1.957-4.358-.25m-121.467 2.433c.721.289 1.584.253 1.916-.079.332-.332-.258-.568-1.312-.525-1.165.048-1.402.285-.604.604m100.342.921c-3.083 2.159-2.966 7.819.204 9.896 2.961 1.94 5.231 1.116 6.434-2.335 1.895-5.436-2.51-10.452-6.638-7.561m43.775.98c-.953 1.149-1.026 2.041-.263 3.25.918 1.456 3.359 1.666 19.333 1.666 15.974 0 18.415-.21 19.333-1.666.763-1.209.69-2.101-.263-3.25-1.961-2.362-36.179-2.362-38.14 0m0 15c-.953 1.149-1.026 2.041-.263 3.25.918 1.456 3.359 1.666 19.333 1.666 15.974 0 18.415-.21 19.333-1.666.763-1.209.69-2.101-.263-3.25-1.961-2.362-36.179-2.362-38.14 0M181.4 134.4c-2.827 2.827-3.399 4.134-3.396 7.75.007 8.32 6.402 14.042 12.994 11.626 8.69-3.184 10.224-14.046 2.859-20.243-4.292-3.611-8.255-3.335-12.457.867m3.04 5.051c-1.611 2.459-1.3 5.669.805 8.299 2.405 3.006 7.755-.198 7.755-4.644 0-5.997-5.49-8.341-8.56-3.655m30.227 6.216c-.367.366-.667 1.708-.667 2.981 0 2.963 2.235 3.53 12.398 3.149 8.267-.311 10.647-1.632 9.293-5.161-.523-1.362-2.283-1.636-10.493-1.636-5.426 0-10.165.3-10.531.667" fill="#1976D2" fill-rule="evenodd"/><path fill-opacity=".385" d="M58.2 1.2c-.752.752-1.2 4.489-1.2 10V20h30.282l-.542-8.691c-.423-6.776-.937-8.98-2.332-10C82.019-.438 59.93-.53 58.2 1.2m56.949 30.818c-2.393 1.086-4.747 1.731-5.23 1.432-1.858-1.148-5.005 1.848-8.842 8.418-8.433 14.44-12.153 31.782-10.156 47.351 1.14 8.894 3.822 17.719 3.997 13.153.116-3.003 2.415-4.561 6.184-4.19 2.829.278 3.74 1.188 7.315 7.307 2.387 4.087 8.06 11.043 13.66 16.75l9.576 9.761h-9.562l2.454 2.455c3.129 3.128 3.129 6.962 0 10.09L122.091 147H86.68c-34.309 0-35.492-.064-38.045-2.073-3.644-2.866-3.644-7.988 0-10.854 2.39-1.881 3.98-2.073 17.125-2.073h14.49l-.616-3.08c-1.702-8.508-8.247-15.712-16.332-17.975-11.838-3.315-26.063 5.454-27.945 17.226L34.744 132H22.007c-11.372 0-13.02.222-15.372 2.073C.945 138.548 4.843 147 12.596 147c2.999 0 3.426.37 4.333 3.75.553 2.063 3.261 12.291 6.017 22.73 5.396 20.435 5.236 20.147 13.753 24.712 4.035 2.162 4.262 2.544 5.829 9.779 3.683 17.003 4.196 18.368 8.179 21.746 11.247 9.54 33.133 19.515 51.293 23.379 13.674 2.909 36.206 3.171 49.287.571 10.707-2.127 22.95-6.213 32.256-10.764l6.957-3.403.264-31.75.264-31.75-17.264-.051c-22.135-.066-30.572-.966-32.392-3.455-1.108-1.515-1.372-9.52-1.372-41.603 0-21.85.28-40.456.621-41.346 1.505-3.922 5.363-4.545 28.165-4.545h21.886l.205-6.25c.241-7.349 1.483-8.75 7.757-8.75 5.495 0 7.366 2.469 7.366 9.723V85h14c8.017 0 14-.4 14-.935 0-2.245-2.374-6.816-5.558-10.701-2.638-3.22-3.442-5.127-3.442-8.168 0-2.397-1.102-6.077-2.784-9.297-2.267-4.34-3.8-5.864-8.25-8.204-5.469-2.875-10.074-3.209-16.537-1.199-1.747.543-2.255.029-3.249-3.291-.649-2.164-2.156-5.177-3.351-6.695-2.519-3.203-9.094-6.456-13.111-6.488-3.681-.029-9.613 2.512-12.718 5.448-2.498 2.362-2.505 2.362-8.75.718-5.801-1.527-6.699-1.527-12.5 0-6.245 1.644-6.252 1.644-8.75-.718-3.105-2.936-9.037-5.477-12.718-5.448-1.53.012-4.74.91-7.133 1.996m46.239 71.962c-6.135 2.479-8.479 12.092-4.257 17.46 2.921 3.713 6.365 4.881 10.431 3.539 4.212-1.389 6.771-5.351 6.771-10.479 0-5.033-2.5-9.014-6.548-10.425-3.54-1.234-3.576-1.235-6.397-.095m21.681 3.27c-.485 1.237-4.524 10.898-8.975 21.468-4.452 10.569-8.094 19.907-8.094 20.75 0 .842.814 1.532 1.809 1.532 2.43 0 20.584-42.806 18.979-44.75-1.528-1.85-2.729-1.527-3.719 1m-22.147 2.343c-.727.877-1.322 3.085-1.322 4.907 0 4.007 1.867 6.5 4.867 6.5 3.026 0 5.533-3.025 5.533-6.674 0-5.254-6.034-8.4-9.078-4.733m20.836 25.157c-3.361 3.534-4.245 7.246-2.781 11.681 2.602 7.885 9.947 9.845 15.623 4.169 3.857-3.857 4.509-8.555 1.89-13.62-2.978-5.759-10.318-6.87-14.732-2.23m2.897 3.079c-1.873 2.07-2.161 6.357-.62 9.237 1.267 2.367 6.167 2.6 8.009.381 1.859-2.24 1.585-7.095-.532-9.434-2.265-2.503-4.7-2.568-6.857-.184M22 147.679c0 .373 2.051 8.36 4.558 17.75a7515.164 7515.164 0 015.476 20.592c.596 2.282 1.983 4.148 3.943 5.306 1.663.982 3.023 1.487 3.023 1.122 0-.886-7.871-36.931-9.106-41.699-.887-3.424-1.272-3.75-4.433-3.75-1.903 0-3.461.305-3.461.679m183.127 54.823c-.38 27.043-.054 29.478 3.247 24.248.781-1.238 2.402-6.975 3.602-12.75 1.2-5.775 2.366-11.175 2.592-12 .227-.825 2.329-2.526 4.672-3.779 7.772-4.158 8.731-5.337 10.788-13.259 2.446-9.419 2.492-8.962-.903-8.962-2.434 0-2.973.491-3.514 3.196-1.643 8.214-2.647 10.394-5.588 12.131-3.556 2.101-3.625 1.795-1.543-6.827 2.153-8.915 2.432-8.5-5.73-8.498l-7.25.001-.373 26.499" fill="#1976D2" fill-rule="evenodd"/><path fill-opacity=".356" d="M58.571 1.571C57.39 2.753 57 5.248 57 11.632v8.489l3.75-.311 3.75-.31.5-8.789c.359-6.31.923-9.056 2-9.735 1.084-.683.341-.95-2.679-.961-2.483-.009-4.816.623-5.75 1.556M184.5 51.17c-1.1.611-2.749 1.757-3.664 2.548-.916.79-4.123 1.587-7.128 1.771-8.816.538-16.705 5.783-20.877 13.88-3.044 5.91-.965 6.799 4.549 1.946 8.774-7.724 19.341-8.329 28.37-1.626 2.961 2.198 3.263 2.92 3.397 8.112l.147 5.699.614-5.5c.747-6.703 1.502-8 4.651-8 1.343 0 2.441-.46 2.441-1.022 0-1.564-7.932-9.822-10.092-10.507-3.163-1.004-2.167-2.377 2.592-3.575 3.337-.841 4.5-1.62 4.5-3.015 0-1.512-.735-1.875-3.75-1.851-2.062.017-4.65.53-5.75 1.14m-70.334 11.426c-3.197 2.239-2.655 7.289 1.002 9.332 2.454 1.371 3.076 1.299 7.75-.89 6.369-2.983 6.508-4.947.555-7.839-5.401-2.624-6.335-2.684-9.307-.603m7.627 22.277c-2.589.895-5.233 2.156-5.875 2.802-1.537 1.546-1.492 5.928.079 7.822 1.692 2.038 6.341 1.899 8.249-.247 2.139-2.405 4.326-10.097 3.172-11.159-.507-.467-3.025-.117-5.625.782m46.957-.13c3.988.189 10.512.189 14.5 0 3.988-.19.725-.346-7.25-.346s-11.238.156-7.25.346m-32.788 22.339c-2.191 4.676-2.261 5.294-.887 7.743.822 1.463 2.266 2.81 3.209 2.991 1.507.29 1.716-.654 1.716-7.743 0-4.44-.373-8.073-.829-8.073-.456 0-1.9 2.287-3.209 5.082m-83.149 4.601c.721.289 1.584.253 1.916-.079.332-.332-.258-.568-1.312-.525-1.165.048-1.402.285-.604.604M17 148.053c0 2.909 11.316 43.584 12.456 44.775 2.252 2.352 11.797 8.064 21.294 12.742l9.25 4.557v8.737c0 9.273.774 11.136 4.629 11.136 3.959 0 5.371-2.549 5.371-9.696v-6.554l2.75.552c7.482 1.503 8.25 2.245 8.25 7.973 0 5.74 1.168 7.725 4.545 7.725 3.141 0 5.455-3.128 5.455-7.374v-3.717l3.75.633c6.734 1.136 7.25 1.447 7.25 4.37 0 2.956 2.662 6.088 5.174 6.088 2.135 0 4.826-3.25 4.826-5.829 0-1.786.577-2.169 3.25-2.157 5.032.021 7.75 1.055 7.75 2.948 0 2.067 3.051 5.038 5.174 5.038 1.906 0 4.826-3.153 4.826-5.212 0-1.733 2.852-2.754 7.75-2.774 2.747-.012 3.25.349 3.25 2.331 0 2.587 2.807 5.655 5.174 5.655 2.272 0 4.826-3.314 4.826-6.261 0-2.73.595-3.074 7.25-4.197l3.75-.633v3.891c0 6.052 4.8 9.257 8.429 5.629 1.005-1.006 1.571-3.355 1.571-6.525 0-5.31.881-6.122 8.25-7.602l2.75-.552v6.47c0 5.2.393 6.825 2 8.28 1.995 1.806 2 1.747 2-25.345 0-26.488-.049-27.155-2-27.155-1.916 0-2 .667-2 15.961v15.962l-5.182 1.538c-2.849.847-5.324 1.539-5.5 1.539-.175 0-.318-7.875-.318-17.5V176h-10v37.738l-3.75.62c-7.855 1.299-7.25 2.864-7.25-18.761v-19.404l-5.001-.346-5-.347v20.75L144 217h-11v-27.566c0-17.089-.393-28.301-1.035-29.5-1.397-2.609-6.533-2.609-7.93 0-.642 1.199-1.035 12.411-1.035 29.5V217h-11v-27.566c0-17.089-.393-28.301-1.035-29.5-1.173-2.192-5.864-2.635-7.765-.734-.875.875-1.2 8.6-1.2 28.5 0 30.483.684 27.969-7.25 26.658l-3.75-.62v-25.935c0-15.965-.398-26.678-1.035-27.869-1.173-2.192-5.864-2.635-7.765-.734-.87.87-1.2 8.179-1.2 26.607 0 21.682-.211 25.326-1.437 24.855-.791-.303-3.266-1.043-5.5-1.645L70 207.923v-23.027c0-13.961-.408-23.789-1.035-24.962-1.173-2.192-5.864-2.635-7.765-.734-.858.858-1.2 7.267-1.2 22.5 0 13.748-.36 21.3-1.015 21.3-1.651 0-24.487-11.695-25.695-13.158-.609-.738-3.544-10.567-6.522-21.842-4.829-18.279-5.651-20.535-7.592-20.82-1.197-.175-2.176.217-2.176.873m209.627 29.697c-.279.963-1.029 3.775-1.665 6.25-1.524 5.926-1.876 6.282-11.077 11.184-6.977 3.717-7.885 4.525-7.885 7.009 0 3.373.436 3.418 5.189.541 2.028-1.229 6.138-3.699 9.132-5.49 2.995-1.791 5.908-3.816 6.475-4.5.567-.684 1.924-4.732 3.015-8.994l1.985-7.75h-2.331c-1.359 0-2.542.729-2.838 1.75" fill="#1976D2" fill-rule="evenodd"/></svg>