<?xml version="1.0" encoding="utf-8"?>
<!-- Generator: Adobe Illustrator 16.0.2, SVG Export Plug-In . SVG Version: 6.00 Build 0)  -->
<!DOCTYPE svg PUBLIC "-//W3C//DTD SVG 1.1//EN" "http://www.w3.org/Graphics/SVG/1.1/DTD/svg11.dtd">
<svg version="1.1" xmlns="http://www.w3.org/2000/svg" xmlns:xlink="http://www.w3.org/1999/xlink" x="0px" y="0px" width="612px"
	 height="792px" viewBox="0 0 612 792" enable-background="new 0 0 612 792" xml:space="preserve">
<g id="Layer_1">
	<g>
		<path fill-rule="evenodd" clip-rule="evenodd" d="M284.359,451.166c-66.998,0-133.997,0.02-200.995-0.01
			c-20.979-0.01-36.703-11.375-41.385-30.053c-0.961-3.832-1.319-7.902-1.348-11.869c-0.134-18.497-0.088-36.997-0.044-55.497
			c0.046-19.426,12.453-32.023,31.833-32.062c43.832-0.086,87.665-0.122,131.496,0.004c17.204,0.049,29.602-7.709,37.943-22.348
			c9.524-16.717,23.813-26.148,42.981-26.153c18.974-0.005,33.121,9.411,42.693,25.811c8.648,14.814,21.16,22.819,38.83,22.724
			c42.998-0.233,85.996-0.116,128.996-0.064c16.117,0.02,27.779,8.513,31.266,22.718c0.666,2.712,0.83,5.602,0.842,8.411
			c0.07,19.165,0.109,38.333,0.023,57.496c-0.107,23.877-16.977,40.752-41.139,40.844c-39.498,0.148-78.996,0.047-118.496,0.049
			C340.023,451.166,312.191,451.166,284.359,451.166z"/>
	</g>
</g>
<g id="Layer_2">
</g>
</svg>
