<svg xmlns="http://www.w3.org/2000/svg" id="Layer_1" width="378.94427" height="87.475075"
viewBox="0 0 378.94428 346.4013" isolation="isolate">
  <path
     d="m -560.5312,164.40131 c 0.069,-41.135 0.173,-82.269998 0.167,-123.403998 -10e-4,-5.674 0.283,-11.243 2.127,-16.648 2.678,-3.99 5.355,-7.98 8.033,-11.971 3.836,-1.99 7.785,-3.8420003 9.951,-7.9290003 8.646,-1.42 16.854,-5.576 25.956,-4.159 3.998,-0.002 7.996,-0.003 11.995,-0.004 4.002,0 8.004,0.001 12.006,0.002 5.331,0 10.662,0 15.994,0 3.335,-0.001 6.67,-0.002 10.004,-0.004 5.999,0.002 11.997,0.004 17.996,0.006 2.002,-0.001 4.004,-0.001 6.006,-0.002 101.5,0.019 203.002,0.002 304.504,0.104 11.934,0.012 23.754,1.714 35.496,3.826 29.284997,6.3030003 54.976997,19.5020003 76.870997,40.0120003 16.0040001,14.99 27.7580001,32.923 37.391,52.512 12.285,24.980998 31.115,44.822998 52.609,61.825998 28.174,22.287 60.359003,35.695 96.297003,40.162 21.318,2.65 42.377,2.211 63.422,-1.623 29.592,-5.391 56.328,-17.141 80.771,-34.84 24.199,-17.523 43.428,-39.287 57.16,-65.505998 10.314,-19.696 22.6,-37.47 38.684,-52.845 21.773,-20.815 47.289,-34.0150003 76.783,-39.7130003 11.076,-2.05 22.141,-3.907 33.494,-3.9 100.838,0.064 201.674,0.012 302.512,-0.006 2,-0.001 4.002,-0.001 6.004,-0.001 3.998,0 7.998,0.001 11.998,0.001 5.332,-0.002 10.666,-0.004 16,-0.005 15.307,0.016 30.611,0.019 45.918,0.057 3.314,0.009 6.58,0.313 9.895,0.811 13.66,2.055 22.219,11.1040003 30.154,21.1640003 3.186,10.219 4.188,20.638 4.111,31.368 -0.26,36.212 -0.061,72.427998 -0.035,108.642998 -0.021,3.999 -0.061,7.998 -0.061,11.998 -0.01,42.662 0.068,85.324 -0.059,127.986 -0.039,13.186 -4.352,24.615 -14.512,33.707 -8.502,7.609 -18.557,9.91 -29.422,10.324 -7.334,0.014 -14.67,0.027 -22.004,0.041 -11.334,0 -22.668,0.002 -34.002,0.002 -17.336,0.002 -34.672,0.004 -52.008,0.006 -4.998,-0.074 -9.994,-0.213 -14.992,-0.213 -359.992,-0.035 -719.982003,-0.068 -1079.973,-0.072 -33.663,0 -67.327,0.186 -100.991,0.285 -18,0 -35.999,0.002 -53.999,0.002 -10.669,-0.002 -21.339,-0.006 -32.009,-0.008 -8,-0.016 -16.001,-0.029 -24.001,-0.043 -24.367,-1.531 -43.521,-15.49 -42.509,-45.4 1.542,-45.47 0.318,-91.03 0.268,-136.549 z m 750.319,123.771 c -84.965,0 -169.930003,-0.004 -254.896003,0.008 -3.328,0.002 -6.705,-0.188 -9.973,0.297 -4.492,0.666 -6.951,3.594 -7.242,8.205 -0.27,4.275 1.969,6.803 5.693,8.43 3.197,1.395 6.543,1.059 9.852,1.066 18.324,0.033 36.65,0.018 54.977,0.02 150.939003,0 301.877003,0.006 452.816003,-0.025 3.977,0 8.07,0.113 11.902,-0.75 4.135,-0.932 7.053,-3.66 6.826,-8.557 -0.217,-4.709 -2.984,-7.904 -8.072,-8.531 -2.957,-0.363 -5.988,-0.158 -8.986,-0.158 -84.299,-0.007 -168.598,-0.007 -252.897,-0.005 z"
     id="path3722" fill="#343665"/>
</svg>
